<mxfile host="Electron" modified="2023-05-10T08:12:32.935Z" agent="Mozilla/5.0 (Windows NT 10.0; Win64; x64) AppleWebKit/537.36 (KHTML, like Gecko) draw.io/21.2.8 Chrome/112.0.5615.165 Electron/24.2.0 Safari/537.36" etag="yuMAV9x0Kegthj6jmyZB" version="21.2.8" type="device">
  <diagram name="第 1 页" id="fM3Vc3Kv1T0QzwrSttcx">
    <mxGraphModel dx="1036" dy="614" grid="1" gridSize="10" guides="1" tooltips="1" connect="1" arrows="1" fold="1" page="1" pageScale="1" pageWidth="827" pageHeight="1169" math="0" shadow="0">
      <root>
        <mxCell id="0" />
        <mxCell id="1" parent="0" />
        <mxCell id="p9XiOc4e-5KOzGA8YhYJ-5" value="" style="edgeStyle=orthogonalEdgeStyle;rounded=0;orthogonalLoop=1;jettySize=auto;html=1;" edge="1" parent="1" source="p9XiOc4e-5KOzGA8YhYJ-1" target="p9XiOc4e-5KOzGA8YhYJ-4">
          <mxGeometry relative="1" as="geometry" />
        </mxCell>
        <mxCell id="p9XiOc4e-5KOzGA8YhYJ-1" value="&lt;font style=&quot;font-size: 24px;&quot;&gt;開始配筋&lt;/font&gt;" style="rounded=1;whiteSpace=wrap;html=1;" vertex="1" parent="1">
          <mxGeometry x="360" y="40" width="120" height="60" as="geometry" />
        </mxCell>
        <mxCell id="p9XiOc4e-5KOzGA8YhYJ-7" value="" style="edgeStyle=orthogonalEdgeStyle;rounded=0;orthogonalLoop=1;jettySize=auto;html=1;" edge="1" parent="1" source="p9XiOc4e-5KOzGA8YhYJ-4" target="p9XiOc4e-5KOzGA8YhYJ-6">
          <mxGeometry relative="1" as="geometry" />
        </mxCell>
        <mxCell id="p9XiOc4e-5KOzGA8YhYJ-4" value="&lt;font style=&quot;font-size: 24px;&quot;&gt;計算參數&lt;/font&gt;" style="rounded=0;whiteSpace=wrap;html=1;" vertex="1" parent="1">
          <mxGeometry x="360" y="180" width="120" height="60" as="geometry" />
        </mxCell>
        <mxCell id="p9XiOc4e-5KOzGA8YhYJ-11" value="" style="edgeStyle=orthogonalEdgeStyle;rounded=0;orthogonalLoop=1;jettySize=auto;html=1;" edge="1" parent="1" source="p9XiOc4e-5KOzGA8YhYJ-6" target="p9XiOc4e-5KOzGA8YhYJ-8">
          <mxGeometry relative="1" as="geometry" />
        </mxCell>
        <mxCell id="p9XiOc4e-5KOzGA8YhYJ-6" value="&lt;font style=&quot;font-size: 24px;&quot;&gt;反算S&lt;/font&gt;" style="rounded=0;whiteSpace=wrap;html=1;" vertex="1" parent="1">
          <mxGeometry x="360" y="320" width="120" height="60" as="geometry" />
        </mxCell>
        <mxCell id="p9XiOc4e-5KOzGA8YhYJ-8" value="&lt;font style=&quot;font-size: 24px;&quot;&gt;結束配筋&lt;/font&gt;" style="rounded=1;whiteSpace=wrap;html=1;" vertex="1" parent="1">
          <mxGeometry x="360" y="460" width="120" height="60" as="geometry" />
        </mxCell>
      </root>
    </mxGraphModel>
  </diagram>
</mxfile>
